<?xml version="1.0" standalone="no"?>
<!DOCTYPE svg PUBLIC "-//W3C//DTD SVG 20010904//EN"
 "http://www.w3.org/TR/2001/REC-SVG-20010904/DTD/svg10.dtd">
<svg version="1.0" xmlns="http://www.w3.org/2000/svg"
 width="512.000000pt" height="512.000000pt" viewBox="0 0 512.000000 512.000000"
 preserveAspectRatio="xMidYMid meet">
<metadata>
Created by potrace 1.16, written by Peter Selinger 2001-2019
</metadata>
<g transform="translate(0.000000,512.000000) scale(0.100000,-0.100000)"
fill="#000000" stroke="none">
<path d="M825 4626 c-136 -44 -242 -135 -302 -262 l-38 -79 -3 -520 c-4 -585
-3 -595 68 -703 66 -102 160 -174 275 -209 55 -16 104 -18 565 -18 498 0 506
1 564 23 180 67 302 217 327 399 6 49 9 248 7 533 -4 403 -6 461 -22 510 -49
153 -164 269 -313 319 -60 20 -82 21 -575 20 -388 0 -523 -3 -553 -13z m1004
-317 c65 -14 117 -67 126 -131 3 -24 5 -236 3 -473 -3 -409 -4 -432 -23 -463
-11 -18 -36 -43 -55 -55 -35 -22 -40 -22 -500 -22 -447 0 -466 1 -498 20 -18
11 -43 36 -55 55 -22 34 -22 43 -25 455 -2 231 0 444 3 473 9 70 57 127 118
140 60 14 844 15 906 1z"/>
<path d="M3470 4633 c-14 -2 -59 -21 -100 -40 -70 -33 -96 -56 -398 -357 -178
-176 -338 -343 -357 -371 -47 -68 -76 -155 -82 -245 -7 -94 9 -171 52 -258 30
-59 75 -108 377 -408 262 -261 355 -348 395 -368 147 -73 303 -74 453 -3 57
27 105 71 388 352 181 179 341 346 363 379 60 89 82 175 77 299 -3 93 -7 109
-41 182 -37 77 -51 93 -380 422 -329 329 -345 343 -422 380 -76 36 -85 38
-190 40 -60 1 -121 -1 -135 -4z m175 -332 c26 -12 146 -125 346 -327 336 -338
343 -348 319 -428 -10 -34 -63 -93 -318 -348 -168 -169 -320 -314 -338 -323
-40 -19 -97 -19 -132 -1 -33 18 -635 622 -651 653 -16 31 -14 89 4 127 22 46
612 632 655 650 46 20 67 19 115 -3z"/>
<path d="M871 2439 c-163 -27 -322 -168 -372 -330 -18 -57 -19 -100 -19 -648
0 -627 -1 -617 50 -726 31 -64 141 -174 205 -205 108 -50 105 -50 647 -50 488
0 511 1 571 21 145 48 253 155 309 305 22 58 22 72 26 599 2 338 -1 569 -7
617 -29 212 -193 384 -401 417 -79 13 -931 13 -1009 0z m1009 -346 c19 -12 44
-37 55 -55 19 -32 20 -54 23 -543 2 -280 0 -529 -3 -553 -9 -64 -61 -117 -126
-131 -66 -14 -837 -14 -899 0 -55 12 -106 59 -120 109 -14 48 -13 1033 0 1082
13 45 60 94 103 107 18 6 224 9 482 8 444 -2 451 -2 485 -24z"/>
<path d="M3051 2279 c-162 -32 -323 -181 -365 -341 -15 -56 -17 -121 -14 -583
l3 -520 37 -78 c50 -105 130 -185 235 -235 l78 -37 630 0 630 0 75 36 c130 62
214 155 262 289 23 65 23 67 23 565 0 488 -1 502 -22 570 -39 124 -122 225
-232 284 -115 61 -119 61 -736 60 -308 -1 -580 -5 -604 -10z m1183 -342 c22
-12 49 -38 60 -57 20 -34 21 -52 24 -463 4 -486 1 -519 -54 -566 -19 -17 -47
-34 -62 -38 -15 -5 -265 -8 -557 -8 -517 0 -531 1 -565 21 -19 11 -45 35 -57
54 l-23 33 0 466 c0 531 -2 516 80 559 l44 22 536 0 535 0 39 -23z"/>
</g>
</svg>
